<?xml version="1.0" encoding="utf-8"?>
<!-- Generator: Adobe Illustrator 19.1.0, SVG Export Plug-In . SVG Version: 6.00 Build 0)  -->
<svg version="1.1" id="Layer_1" xmlns="http://www.w3.org/2000/svg" xmlns:xlink="http://www.w3.org/1999/xlink" x="0px" y="0px"
	 viewBox="0 0 270.5 55.1" style="enable-background:new 0 0 270.5 55.1;" xml:space="preserve">
<style type="text/css">
	.st0{fill:#ED1C24;}
</style>
<g>
	<path class="st0" d="M39.4,39.2c0,1.6-0.4,3-1.2,4.2c-3.9,6.1-10.5,9.2-20,9.2c-3,0-6.7-0.5-11.2-1.5c0,0.1,0,0.2-0.1,0.3
		c0,0.2,0.1,0.6,0.3,1.5C7,53.5,6.6,53.8,6,54l-0.7-0.3c-1.1,0.1-1.7-0.4-1.9-1.5c-0.2-1.6-0.3-2.5-0.5-2.7
		c-0.1-0.2-0.7-0.4-1.8-0.8C0.4,48.4,0,47.9,0,47.3c0-0.8,0.4-1.2,1.3-1.3c0.8-0.1,1.3-0.2,1.3-0.5c0,0.1,0-0.4,0-1.2
		c0-0.9,0-2.2,0.1-4.1c0.1-1.9,0.1-3.3,0.1-4.3v-2.7C1.6,33,1,32.5,1,31.9c0-0.8,0.5-1.4,1.6-1.9V4.3c0-0.4,0.3-0.9,1-1.5
		c0.7-0.6,1.2-0.9,1.7-0.9c0.9,0,1.4,0.1,1.6,0.2c0.3,0.3,0.7,0.6,1,1c-0.9,4.7-1.4,8.1-1.4,10.1l0.1,0.5
		c3.9-8.9,9.8-13.4,17.6-13.4c4.5,0,7.9,1.5,10.3,4.6c2.1,2.7,3.2,6.1,3.2,10.2c0,3.1-0.8,6.1-2.4,9c-1.8,3.5-4.2,5.6-7.1,6.4
		C35.6,31.3,39.4,34.2,39.4,39.2z M35.1,38.8c0-2.8-3.1-4.6-9.2-5.4c-2.5-0.4-6.8-0.5-13-0.5c-2.4,0-4.4,0.2-5.8,0.5
		C7,35,6.9,38.4,6.9,43.7c0,1.3,0.1,2.5,0.2,3.6c2.8,1.4,6.5,2.1,11,2.1c3.7,0,7.3-1,10.9-2.9C33,44.4,35.1,41.8,35.1,38.8z
		 M33.2,14.7c0-7.6-3.2-11.5-9.5-11.5c-4.3,0-8.2,2.5-11.7,7.4c-3.2,4.4-4.8,8.6-4.8,12.6V30c-0.2,0,1.9,0,6.4,0
		c6.7,0,11.5-1,14.5-3.1C31.6,24.4,33.2,20.4,33.2,14.7z"/>
	<path class="st0" d="M69.8,37.8c0,4.4-1.1,8.2-3.3,11.5c-2.6,3.9-6.2,5.9-10.8,5.9c-4.7,0-8.2-1.6-10.5-4.8
		c-1.9-2.7-2.9-6.2-2.9-10.6c0-4.3,1.1-8.6,3.3-12.8c2.8-5.1,6.3-7.7,10.6-7.7c1.1,0,2.7,0.6,4.7,1.7C66.8,24.2,69.8,29.8,69.8,37.8
		z M65.6,37.7c0-3.3-0.5-6.2-1.5-8.8c-1.4-3.6-3.7-5.4-6.7-5.4c-3.5,0-6.2,2-8.1,6c-1.5,3.1-2.3,6.5-2.3,10c0,3.2,0.5,5.9,1.6,8.1
		c1.5,3,3.8,4.5,7,4.5c3.5,0,6.1-1.7,7.9-5.2C64.9,44.3,65.6,41.2,65.6,37.7z"/>
	<path class="st0" d="M91.6,25.6c0,0.2,0,0.6-0.1,1.3c-0.8,1-1.5,1.5-2.2,1.5c-0.5,0-0.9-0.3-1.2-0.8c-0.2-3.2-1.7-4.8-4.5-4.8
		c-1.8,0-3.7,3-5.5,9c-0.7,2.2-1,5.1-1,8.8c0,4.7,0.1,7.6,0.4,8.6c0.1,0.2,0.2,0.5,0.4,1c0.2,0.5,0.3,0.9,0.3,1.1
		c0,1.1-0.9,1.7-2.6,1.7c-2,0-2.9-0.9-2.9-2.7c0-0.3,0.1-0.6,0.2-1.1c0.1-0.5,0.2-0.9,0.2-1.1c0-2.8-0.1-7-0.4-12.6
		c-0.3-5.6-0.4-9.8-0.4-12.6c0-1,0.2-1.6,0.6-1.9c0.4-0.2,1.2-0.3,2.3-0.3c1.4,0,2.3,0.5,2.5,1.4c0.1,1,0.1,2,0.2,3
		c1.5-2,2.4-3.2,2.6-3.4c1.3-1.3,2.6-1.9,4-1.9c1,0,2.1,0.3,3.1,0.8c0.6,0.3,1.4,1.1,2.4,2.4C91.1,24.2,91.6,25.1,91.6,25.6z"/>
	<path class="st0" d="M119.5,4.2c0,1.2-0.2,2.7-0.5,4.5c-0.4,2.4-0.7,3.9-0.8,4.5c-0.2,1.6-0.5,6.8-0.9,15.8
		c-0.3,8.2-0.5,12.7-0.5,13.6c0,5.5,0.5,9.3,1.6,11.6c-0.4,0.6-0.9,0.8-1.6,0.8c-0.6,0-1.2-0.3-1.9-0.8c-0.7-0.5-1.2-1-1.3-1.5
		c0-1-0.2-2.6-0.5-4.7c-3.4,3.8-6.7,5.7-9.8,5.7c-3.8,0-6.6-1.2-8.7-3.7c-1.7-2.1-2.6-5-2.6-8.5c0-4.3,0.9-8.7,2.7-13.3
		c2.3-6,5.4-9,9.2-9c1.6,0,3.3,0.5,4.9,1.6c0.3,0.2,1.7,1.3,4.1,3.2c0.6-3.5,0.9-11.1,0.9-22.9c0.4-0.4,1-0.5,1.6-0.5
		c1.1,0,2,0.4,2.9,1.1C119.1,2.4,119.5,3.2,119.5,4.2z M113.1,32.5c0-2.2-0.6-4.3-1.7-6c-1.4-2.1-3.3-3.2-5.6-3.2
		c-2.9,0-5.2,2.6-6.9,7.8c-1.4,3.9-2.1,7.6-2.1,11.1c0,2.2,0.4,4.2,1.2,5.8c1.1,2.1,2.7,3.2,4.9,3.2c3.6,0,6.3-2.4,8.1-7.3
		C112.4,40.3,113.1,36.5,113.1,32.5z"/>
	<path class="st0" d="M147.5,45.3c0,2.2-1.7,4.3-5.1,6c-3.1,1.6-5.9,2.4-8.7,2.4c-7.7,0-11.6-4.3-11.6-13c0-3.8,0.8-7.9,2.3-12.3
		c2.1-5.7,4.7-8.6,8-8.6c2.8,0,5.8,1.2,9.1,3.7c3.3,2.5,4.9,4.9,4.9,7.4c0,3.2-1.4,5.9-4.3,8.3c-2.9,2.3-6.1,3.5-9.8,3.5
		c-0.3,0-1.1-0.3-2.2-0.8c-1.1-0.5-1.9-0.8-2.3-0.8c-0.8,0-1.1,0.2-1.1,0.6c0,5.9,2.2,8.8,6.6,8.8c2.3,0,4.3-0.7,6.2-2
		c1.2-0.8,2.4-2,3.8-3.6c1.1-1.3,1.8-1.9,2.2-1.9C146.8,43.1,147.5,43.8,147.5,45.3z M141.5,31.2c0-1.8-0.6-3.5-1.7-5
		c-1.2-1.6-2.7-2.3-4.6-2.3c-2.3,0-4.2,1.3-5.6,3.8c-1.2,2.1-1.8,4.4-1.8,6.7c0,1.5,0.5,2.7,1.6,3.7c1.1,1,2.4,1.5,4.1,1.5
		c2.4,0,4.3-0.9,5.9-2.7C140.8,35.2,141.5,33.3,141.5,31.2z"/>
	<path class="st0" d="M168.9,25.6c0,0.2,0,0.6-0.1,1.3c-0.8,1-1.5,1.5-2.2,1.5c-0.5,0-0.9-0.3-1.2-0.8c-0.2-3.2-1.7-4.8-4.5-4.8
		c-1.8,0-3.7,3-5.5,9c-0.7,2.2-1,5.1-1,8.8c0,4.7,0.1,7.6,0.4,8.6c0.1,0.2,0.2,0.5,0.4,1c0.2,0.5,0.3,0.9,0.3,1.1
		c0,1.1-0.9,1.7-2.6,1.7c-2,0-2.9-0.9-2.9-2.7c0-0.3,0.1-0.6,0.2-1.1c0.1-0.5,0.2-0.9,0.2-1.1c0-2.8-0.1-7-0.4-12.6
		c-0.3-5.6-0.4-9.8-0.4-12.6c0-1,0.2-1.6,0.6-1.9c0.4-0.2,1.2-0.3,2.3-0.3c1.4,0,2.3,0.5,2.5,1.4c0.1,1,0.1,2,0.2,3
		c1.5-2,2.4-3.2,2.6-3.4c1.3-1.3,2.6-1.9,4-1.9c1,0,2.1,0.3,3.1,0.8c0.6,0.3,1.4,1.1,2.4,2.4C168.4,24.2,168.9,25.1,168.9,25.6z"/>
	<path class="st0" d="M215.3,52.5v0.4c-0.3,0.5-0.8,0.8-1.5,0.8c-0.8,0-1.3-0.1-1.6-0.4c-0.5-2.1-4.4-5.4-11.7-10
		c-7.3-4.6-12.3-6.8-14.9-6.8h-4.9v4.7c0,0.7,0.2,2.2,0.6,4.6c0.4,2.5,0.7,4,0.9,4.2c1,1.4,1.5,2,1.5,1.9c0,1.2-0.8,1.8-2.3,1.8
		c-1.7,0-2.9-0.5-3.8-1.6s-1.3-6.1-1.3-15c0-0.7-1-1.4-3-1.9c-2-0.6-3-1.2-3-2c0-1.1,1.8-2.1,5.5-3.1c0.4-1.8,0.7-4.3,0.8-7.3
		c0.2-3.8,0.4-6.3,0.5-7.4c0.1-0.6,0.3-2.1,0.8-4.6c0.4-1.9,0.6-3.4,0.5-4.7c-0.3-0.2-1.1-0.2-2.3-0.2c-1.2,0-1.9-0.4-1.9-1.3
		c0-1.1,0.6-1.7,1.7-2c0.8-0.2,1.6-0.4,2.5-0.6c0.2-0.5,0.5-1.1,1.1-1.7c0.5-0.2,1-0.2,1.4-0.2c0.6,0,1.3,0.3,1.9,0.8
		c0.7,0.6,1.3,0.8,1.8,0.8c0.3,0,0.7,0,1.2-0.1c0.5-0.1,0.9-0.1,1.2-0.1c6.4,0,11.8,1.2,16.2,3.5c5.4,2.8,8.1,6.8,8.1,12.1
		c0,4.4-1.5,8-4.4,10.7c-1.8,1.8-5.4,4-10.7,6.5c-0.3,0.1-0.8,0.2-1.2,0.4c1.2,1,3.8,2.6,7.8,5c4,2.3,6.9,4.3,8.7,5.7
		C214.1,47.7,215.4,50.1,215.3,52.5z M206.9,16.7c0-3.9-2-6.9-6-8.9c-3.3-1.7-7.2-2.6-11.9-2.6c-1.7,0-3,0.1-4.1,0.3L183.8,7
		c-0.8,1.2-1.3,2.7-1.4,4.7c-0.1,2.8-0.2,4.5-0.3,5c-0.7,2.9-1.2,7.5-1.4,13.8c4.3,1.4,6.9,2.1,7.9,2.1c0.8,0,2-0.2,3.5-0.6
		c4.3-1.1,7.7-3,10.4-5.6C205.4,23.7,206.9,20.4,206.9,16.7z"/>
	<path class="st0" d="M240.9,45.3c0,2.2-1.7,4.3-5.1,6c-3.1,1.6-5.9,2.4-8.7,2.4c-7.7,0-11.6-4.3-11.6-13c0-3.8,0.8-7.9,2.3-12.3
		c2.1-5.7,4.7-8.6,8-8.6c2.8,0,5.8,1.2,9.1,3.7c3.3,2.5,4.9,4.9,4.9,7.4c0,3.2-1.4,5.9-4.3,8.3c-2.9,2.3-6.1,3.5-9.8,3.5
		c-0.3,0-1.1-0.3-2.2-0.8c-1.1-0.5-1.9-0.8-2.3-0.8c-0.8,0-1.1,0.2-1.1,0.6c0,5.9,2.2,8.8,6.6,8.8c2.3,0,4.3-0.7,6.2-2
		c1.2-0.8,2.4-2,3.8-3.6c1.1-1.3,1.8-1.9,2.2-1.9C240.2,43.1,240.9,43.8,240.9,45.3z M234.9,31.2c0-1.8-0.6-3.5-1.7-5
		c-1.2-1.6-2.7-2.3-4.6-2.3c-2.3,0-4.2,1.3-5.6,3.8c-1.2,2.1-1.8,4.4-1.8,6.7c0,1.5,0.5,2.7,1.6,3.7c1.1,1,2.4,1.5,4.1,1.5
		c2.4,0,4.3-0.9,5.9-2.7C234.2,35.2,234.9,33.3,234.9,31.2z"/>
	<path class="st0" d="M270.5,4.2c0,1.2-0.2,2.7-0.5,4.5c-0.4,2.4-0.7,3.9-0.8,4.5c-0.2,1.6-0.5,6.8-0.9,15.8
		c-0.3,8.2-0.5,12.7-0.5,13.6c0,5.5,0.5,9.3,1.6,11.6c-0.4,0.6-0.9,0.8-1.6,0.8c-0.6,0-1.2-0.3-1.9-0.8c-0.7-0.5-1.2-1-1.3-1.5
		c0-1-0.2-2.6-0.5-4.7c-3.4,3.8-6.7,5.7-9.8,5.7c-3.8,0-6.6-1.2-8.7-3.7c-1.7-2.1-2.6-5-2.6-8.5c0-4.3,0.9-8.7,2.7-13.3
		c2.3-6,5.4-9,9.2-9c1.6,0,3.3,0.5,4.9,1.6c0.3,0.2,1.7,1.3,4.1,3.2c0.6-3.5,0.9-11.1,0.9-22.9c0.4-0.4,1-0.5,1.6-0.5
		c1.1,0,2,0.4,2.9,1.1C270.1,2.4,270.5,3.2,270.5,4.2z M264,32.5c0-2.2-0.6-4.3-1.7-6c-1.4-2.1-3.3-3.2-5.6-3.2
		c-2.9,0-5.2,2.6-6.9,7.8c-1.4,3.9-2.1,7.6-2.1,11.1c0,2.2,0.4,4.2,1.2,5.8c1.1,2.1,2.7,3.2,4.9,3.2c3.6,0,6.3-2.4,8.1-7.3
		C263.3,40.3,264,36.5,264,32.5z"/>
</g>
</svg>
